<?xml version="1.0" encoding="UTF-8" standalone="no"?>
<!DOCTYPE svg PUBLIC "-//W3C//DTD SVG 1.1//EN" "http://www.w3.org/Graphics/SVG/1.1/DTD/svg11.dtd">
<svg width="100%" height="100%" viewBox="0 0 288 288" version="1.1" xmlns="http://www.w3.org/2000/svg" xmlns:xlink="http://www.w3.org/1999/xlink" xml:space="preserve" xmlns:serif="http://www.serif.com/" style="fill-rule:evenodd;clip-rule:evenodd;stroke-linejoin:round;stroke-miterlimit:2;">
    <g>
        <g transform="matrix(0.0302362,0,0,0.0302362,15.9647,0)">
            <path d="M4654,115L8050,2076C8317,2230 8469,2494 8469,2802L8469,6723C8469,7031 8316,7295 8050,7449L4654,9410C4387,9564 4082,9564 3815,9410L419,7449C152,7295 0,7031 0,6723L0,2802C0,2494 153,2230 419,2076L3815,115C4082,-39 4387,-39 4654,115Z" style="fill:rgb(186,215,242);"/>
        </g>
        <g transform="matrix(0.0302362,0,0,0.0302362,15.9647,0)">
            <path d="M3873,9441C3773,6618 3656,3164 3639,2642C3397,2496 3236,2231 3236,1928C3236,1468 3609,1095 4069,1095C4529,1095 4902,1468 4902,1928C4902,2231 4740,2496 4499,2642C4481,3169 4362,6687 4262,9525C4131,9529 3999,9501 3874,9441L3873,9441ZM4068,1572C4265,1572 4425,1732 4425,1929C4425,2126 4265,2286 4068,2286C3871,2286 3711,2126 3711,1929C3711,1732 3871,1572 4068,1572Z" style="fill:rgb(252,196,25);"/>
        </g>
        <g transform="matrix(0.0302362,0,0,0.0302362,15.9647,0)">
            <path d="M4498,2642C4498,2642 4330,2695 4292,2702C4256,2709 4258,8863 4258,9525L4260,9525C4361,6687 4480,3169 4497,2642L4498,2642Z" style="fill:rgb(240,240,240);"/>
        </g>
        <g transform="matrix(0.0302362,0,0,0.0302362,15.9647,0)">
            <path d="M3778,8963C3745,8939 3699,8901 3668,8873C3643,8850 3644,8846 3622,8822C3525,8722 3459,8598 3571,8486C3635,8422 3729,8360 3833,8302C3991,8214 4173,8137 4312,8081C4332,8073 4351,8066 4368,8059C4759,7904 5429,7628 5537,7187C5600,6930 5515,6714 5392,6557C5329,6476 5253,6425 5183,6358C5117,6295 5030,6243 4948,6184C4821,6092 4584,5957 4433,5884L4389,5857L4368,6477L4410,6499C4540,6558 5097,6846 5038,7057C5013,7148 4916,7219 4842,7270C4697,7370 4511,7454 4331,7532L4307,7542C4179,7596 3993,7672 3814,7756C3637,7839 3467,7929 3369,8014C3325,8052 3293,8070 3259,8108C3221,8150 3202,8161 3165,8208C3058,8347 3017,8498 3034,8687C3046,8827 3105,8945 3188,9049L3817,9412C3836,9423 3856,9433 3875,9443L3860,9011C3834,8996 3807,8980 3780,8965L3778,8963ZM4570,9453C4470,9498 4365,9522 4261,9525L4270,9268C4369,9331 4468,9394 4570,9453ZM5735,3559C5895,3575 6096,3601 6186,3717C6260,3812 6225,3796 6168,3733C6097,3653 5865,3605 5795,3611C5860,3641 5923,3672 5981,3708C6038,3744 6089,3811 6103,3840C6117,3869 6116,3877 6081,3850C6047,3823 6028,3765 5973,3741C5919,3717 5756,3651 5744,3640C5738,3635 5719,3625 5699,3615C5580,3745 5235,3812 5105,3824C4678,3863 4762,3715 4236,3922C4060,3991 3891,4074 3756,4171C3732,4189 3711,4204 3692,4220C3647,4256 3611,4289 3555,4339C3414,4465 3311,4601 3281,4792C3248,5001 3363,5142 3502,5276C3569,5340 3643,5384 3700,5435L3734,5456L3758,6162L3712,6138L3205,5816L3104,5732C3089,5718 3075,5706 3058,5691L2879,5510C2551,5102 2561,4574 2894,4175C3018,4027 3164,3892 3330,3785L3491,3684C3550,3651 3609,3616 3669,3582C3765,3527 3863,3472 3960,3424C4144,3332 4590,3185 4758,3142C4947,3094 5139,3096 5365,3191C5455,3229 5523,3274 5598,3328C5723,3418 5756,3495 5734,3559L5735,3559Z"/>
        </g>
        <g transform="matrix(0.0302362,0,0,0.0302362,15.9647,0)">
            <path d="M4913,3327C4913,3327 4950,3240 5070,3268C5190,3296 5190,3347 5140,3357C5090,3366 4999,3407 4913,3327Z" style="fill:rgb(252,196,25);"/>
        </g>
    </g>
</svg>
